<svg width="31" height="32" viewBox="0 0 31 32" fill="none" xmlns="http://www.w3.org/2000/svg">
<path fill-rule="evenodd" clip-rule="evenodd" d="M23.7909 5.11475H8.79093C8.11598 5.11693 7.48988 5.44915 7.13441 5.99372L1.91702 10.9457C1.32533 11.2816 0.963599 11.8883 0.964847 12.5427V29.2556C0.964847 30.2811 1.84081 31.1125 2.92137 31.1125H23.7909C24.8715 31.1125 25.7474 30.2811 25.7474 29.2556V6.97173C25.7474 5.94615 24.8715 5.11475 23.7909 5.11475ZM6.83444 8.9021V10.6877H4.95618L6.83444 8.9021ZM23.7909 29.2544H2.92139V12.6031H2.96052L2.99965 12.5659H8.79094V7.06915L8.83007 7.03201V6.99487H23.7648L23.7909 29.2544Z" fill="#9B9B9B"/>
<path d="M8.79093 5.11475V4.61474L8.78931 4.61475L8.79093 5.11475ZM7.13441 5.99372L7.47862 6.35638L7.52109 6.31606L7.5531 6.26702L7.13441 5.99372ZM1.91702 10.9457L2.16387 11.3805L2.21696 11.3504L2.26123 11.3083L1.91702 10.9457ZM0.964847 12.5427H1.46485L1.46485 12.5417L0.964847 12.5427ZM6.83444 8.9021H7.33444V7.73688L6.48994 8.53972L6.83444 8.9021ZM6.83444 10.6877V11.1877H7.33444V10.6877H6.83444ZM4.95618 10.6877L4.61168 10.3253L3.70454 11.1877H4.95618V10.6877ZM23.7909 29.2544V29.7544H24.2915L24.2909 29.2538L23.7909 29.2544ZM2.92139 29.2544H2.42139V29.7544H2.92139V29.2544ZM2.92139 12.6031V12.1031H2.42139V12.6031H2.92139ZM2.96052 12.6031V13.1031H3.16002L3.30473 12.9657L2.96052 12.6031ZM2.99965 12.5659V12.0659H2.80014L2.65544 12.2033L2.99965 12.5659ZM8.79094 12.5659V13.0659H9.29093V12.5659H8.79094ZM8.79094 7.06915L8.44672 6.7065L8.29094 6.85436V7.06915H8.79094ZM8.83007 7.03201L9.17428 7.39467L9.33007 7.2468V7.03201H8.83007ZM8.83007 6.99487V6.49487H8.33007V6.99487H8.83007ZM23.7648 6.99487L24.2648 6.99429L24.2642 6.49487H23.7648V6.99487ZM23.7909 4.61475H8.79093V5.61475H23.7909V4.61475ZM8.78931 4.61475C7.9537 4.61745 7.1673 5.02859 6.71571 5.72042L7.5531 6.26702C7.81246 5.8697 8.27825 5.61641 8.79255 5.61474L8.78931 4.61475ZM6.7902 5.63106L1.57281 10.583L2.26123 11.3083L7.47862 6.35638L6.7902 5.63106ZM1.67017 10.5109C0.929414 10.9314 0.46324 11.7003 0.464848 12.5436L1.46485 12.5417C1.46396 12.0763 1.72125 11.6318 2.16387 11.3805L1.67017 10.5109ZM0.464847 12.5427V29.2556H1.46485V12.5427H0.464847ZM0.464847 29.2556C0.464847 30.5816 1.58959 31.6125 2.92137 31.6125V30.6125C2.09203 30.6125 1.46485 29.9807 1.46485 29.2556H0.464847ZM2.92137 31.6125H23.7909V30.6125H2.92137V31.6125ZM23.7909 31.6125C25.1227 31.6125 26.2474 30.5816 26.2474 29.2556H25.2474C25.2474 29.9807 24.6203 30.6125 23.7909 30.6125V31.6125ZM26.2474 29.2556V6.97173H25.2474V29.2556H26.2474ZM26.2474 6.97173C26.2474 5.64573 25.1227 4.61475 23.7909 4.61475V5.61475C24.6203 5.61475 25.2474 6.24657 25.2474 6.97173H26.2474ZM6.33444 8.9021V10.6877H7.33444V8.9021H6.33444ZM6.83444 10.1877H4.95618V11.1877H6.83444V10.1877ZM5.30068 11.0501L7.17894 9.26448L6.48994 8.53972L4.61168 10.3253L5.30068 11.0501ZM23.7909 28.7544H2.92139V29.7544H23.7909V28.7544ZM3.42139 29.2544V12.6031H2.42139V29.2544H3.42139ZM2.92139 13.1031H2.96052V12.1031H2.92139V13.1031ZM3.30473 12.9657L3.34386 12.9286L2.65544 12.2033L2.6163 12.2404L3.30473 12.9657ZM2.99965 13.0659H8.79094V12.0659H2.99965V13.0659ZM9.29093 12.5659V7.06915H8.29094V12.5659H9.29093ZM9.13515 7.43181L9.17428 7.39467L8.48585 6.66936L8.44672 6.7065L9.13515 7.43181ZM9.33007 7.03201V6.99487H8.33007V7.03201H9.33007ZM8.83007 7.49487H23.7648V6.49487H8.83007V7.49487ZM23.2648 6.99546L23.2909 29.255L24.2909 29.2538L24.2648 6.99429L23.2648 6.99546Z" fill="#9B9B9B"/>
<path fill-rule="evenodd" clip-rule="evenodd" d="M28.3554 0.77832H13.3554C12.6804 0.780504 12.0543 1.11273 11.6989 1.65733L6.48147 6.60948C5.88978 6.94541 5.52805 7.55213 5.5293 8.20654V24.92C5.5293 25.9457 6.40526 26.7771 7.48582 26.7771H28.3554C29.4359 26.7771 30.3119 25.9457 30.3119 24.92V2.63538C30.3119 1.60975 29.4359 0.77832 28.3554 0.77832ZM11.3989 4.57153V6.35713H9.5206L11.3989 4.57153ZM28.3554 24.9226H7.48582V8.27133H7.52495L7.56408 8.23419H13.3554V2.7374L13.3945 2.70026V2.66312H28.3294L28.3554 24.9226Z" fill="#9B9B9B"/>
</svg>
