<svg width="31" height="31" viewBox="0 0 31 31" fill="none" xmlns="http://www.w3.org/2000/svg">
<path fill-rule="evenodd" clip-rule="evenodd" d="M29.8077 5.01254H22.9877C21.8109 2.31544 18.8293 0.530762 15.5 0.530762C12.1707 0.530762 9.18906 2.31544 8.01231 5.01254H1.19231C0.533814 5.01254 0 5.47482 0 6.04509C0 6.61535 0.533814 7.07764 1.19231 7.07764H1.98718V28.4171C1.98718 29.5576 3.05481 30.4822 4.37179 30.4822H25.8333C27.1503 30.4822 28.2179 29.5576 28.2179 28.4171V7.07764H29.8077C30.4662 7.07764 31 6.61535 31 6.04509C31 5.47482 30.4662 5.01254 29.8077 5.01254ZM15.5 2.60661C17.67 2.60661 19.5538 3.29609 20.4838 5.0198H10.5162C11.4462 3.2892 13.33 2.60661 15.5 2.60661ZM25.8334 28.4175H22.6539V16.7151C22.6539 16.1449 22.1201 15.6826 21.4616 15.6826C20.8031 15.6826 20.2693 16.1449 20.2693 16.7151V28.4175H16.2949V12.5849C16.2949 12.0146 15.7611 11.5523 15.1026 11.5523C14.4441 11.5523 13.9103 12.0146 13.9103 12.5849V28.4175H9.93593V16.7151C9.93593 16.1449 9.40212 15.6826 8.74362 15.6826C8.08513 15.6826 7.55131 16.1449 7.55131 16.7151V28.4175H4.37183V7.07788H25.8334V28.4175Z" fill="#9B9B9B"/>
</svg>
