<svg width="30" height="32" viewBox="0 0 30 32" fill="none" xmlns="http://www.w3.org/2000/svg">
<path fill-rule="evenodd" clip-rule="evenodd" d="M15.1458 10.4307C12.2003 10.4307 9.8125 12.8941 9.8125 15.9329C9.8125 18.9716 12.2003 21.4351 15.1458 21.4351C18.0913 21.4351 20.4791 18.9716 20.4791 15.9329C20.4791 12.8941 18.0913 10.4307 15.1458 10.4307ZM15.1458 19.3757C13.3049 19.3757 11.8125 17.836 11.8125 15.9365C11.8125 14.0371 13.3049 12.4973 15.1458 12.4973C16.9868 12.4973 18.4791 14.0371 18.4791 15.9365C18.4791 17.836 16.9868 19.3757 15.1458 19.3757Z" fill="#9B9B9B"/>
<path fill-rule="evenodd" clip-rule="evenodd" d="M27.8134 11.8055H25.7468C25.6623 11.5717 25.569 11.3424 25.4668 11.1178L26.9268 9.61156C27.7067 8.806 27.7067 7.50099 26.9268 6.69543L24.1001 3.7793C23.3193 2.97474 22.0543 2.97474 21.2735 3.7793L19.8135 5.28551C19.5957 5.18463 19.3735 5.08835 19.1468 4.99664V2.86457C19.1468 1.72504 18.2514 0.80127 17.1468 0.80127H13.1468C12.0422 0.80127 11.1468 1.72504 11.1468 2.86457V4.99664C10.9201 5.08376 10.6979 5.18005 10.4801 5.28551L9.02013 3.7793C8.23928 2.97474 6.97431 2.97474 6.19346 3.7793L3.3668 6.69543C2.58692 7.50099 2.58692 8.806 3.3668 9.61156L4.81346 11.1178C4.71568 11.3424 4.62235 11.5717 4.53346 11.8055H2.4668C1.36223 11.8055 0.466797 12.7293 0.466797 13.8688V17.9954C0.466797 19.135 1.36223 20.0587 2.4668 20.0587H4.53346C4.61791 20.2926 4.71124 20.5218 4.81346 20.7465L3.35346 22.2527C2.57359 23.0583 2.57359 24.3633 3.35346 25.1688L6.18013 28.085C6.96097 28.8895 8.22595 28.8895 9.00679 28.085L10.4668 26.5788C10.6846 26.6796 10.9068 26.7759 11.1335 26.8676V28.9997C11.1335 30.1392 12.0289 31.063 13.1335 31.063H17.1335C18.238 31.063 19.1335 30.1392 19.1335 28.9997V26.8676C19.3601 26.7805 19.5823 26.6842 19.8001 26.5788L21.2601 28.085C22.041 28.8895 23.3059 28.8895 24.0868 28.085L26.9135 25.1688C27.6933 24.3633 27.6933 23.0583 26.9135 22.2527L25.4801 20.7465C25.5779 20.5218 25.6712 20.2926 25.7601 20.0587H27.8268C28.9314 20.0587 29.8268 19.135 29.8268 17.9954V13.8688C29.8268 13.3192 29.6142 12.7923 29.2363 12.405C28.8583 12.0176 28.3462 11.8019 27.8134 11.8055ZM27.8135 17.999H24.2602C24.0234 19.1088 23.5967 20.1662 23.0002 21.1215L25.5135 23.7144L22.6868 26.6306L20.1468 24.0377C19.2208 24.6531 18.1959 25.0933 17.1202 25.3376V29.0034H13.1201V25.3376C12.0444 25.0933 11.0195 24.6531 10.0935 24.0377L7.58014 26.6306L4.75347 23.7144L7.2668 21.1215C6.67026 20.1662 6.24358 19.1088 6.0068 17.999H2.48013V13.8724H6.03347C6.27025 12.7625 6.69692 11.7052 7.29347 10.7499L4.78013 8.15694L7.6068 5.24076L10.1201 7.83368C11.0461 7.21824 12.0711 6.77806 13.1468 6.53378V2.86794H17.1468V6.53378C18.2226 6.77806 19.2475 7.21824 20.1735 7.83368L22.6868 5.24076L25.5135 8.15694L23.0002 10.7499C23.5967 11.7052 24.0234 12.7625 24.2602 13.8724H27.8135V17.999Z" fill="#9B9B9B"/>
</svg>
