<svg width="37" height="33" viewBox="0 0 37 33" fill="none" xmlns="http://www.w3.org/2000/svg">
<path fill-rule="evenodd" clip-rule="evenodd" d="M34.6875 24.75C34.6875 26.0511 33.6515 27.1071 32.375 27.1071H29.8983C29.3838 25.0776 27.5904 23.5714 25.4375 23.5714H11.5625C9.40956 23.5714 7.61622 25.0776 7.10169 27.1071H4.625C3.3485 27.1071 2.3125 26.0511 2.3125 24.75V22.3929C2.3125 21.0917 3.3485 20.0357 4.625 20.0357H32.375C33.6515 20.0357 34.6875 21.0917 34.6875 22.3929V24.75ZM25.4375 30.6429H11.5625C10.286 30.6429 9.25 29.5869 9.25 28.2857C9.25 26.9846 10.286 25.9286 11.5625 25.9286H25.4375C26.714 25.9286 27.75 26.9846 27.75 28.2857C27.75 29.5869 26.714 30.6429 25.4375 30.6429ZM9.25 4.71429C9.25 3.41314 10.286 2.35714 11.5625 2.35714H25.4375C26.714 2.35714 27.75 3.41314 27.75 4.71429V17.6786H9.25V4.71429ZM32.375 17.6786H30.0625V4.71429C30.0625 2.11082 27.9917 0 25.4375 0H11.5625C9.00834 0 6.9375 2.11082 6.9375 4.71429C6.9375 4.71429 6.9375 16.9113 6.9375 17.6786H4.625C2.07084 17.6786 0 19.7894 0 22.3929V24.75C0 27.3535 2.07084 29.4643 4.625 29.4643H7.10169C7.61622 31.495 9.40956 33 11.5625 33H25.4375C27.5904 33 29.3838 31.495 29.8983 29.4643H32.375C34.9292 29.4643 37 27.3535 37 24.75V22.3929C37 19.7894 34.9292 17.6786 32.375 17.6786Z" fill="#FFFFFE"/>
</svg>
