<?xml version="1.0" standalone="no"?><!DOCTYPE svg PUBLIC "-//W3C//DTD SVG 1.1//EN" "http://www.w3.org/Graphics/SVG/1.1/DTD/svg11.dtd"><svg class="icon" height="512" viewBox="0 0 1024 1024" version="1.1" xmlns="http://www.w3.org/2000/svg"><path d="M510.902341 513.098927m-510.901073 0a510.901073 510.901073 0 1 0 1021.802147 0 510.901073 510.901073 0 1 0-1021.802147 0Z" fill="#458ACA" /><path d="M512.600683 869.650732c-48.35278 0-95.306927-9.490732-139.463805-28.172488-42.658341-18.082341-81.020878-43.857171-113.88878-76.824976-32.967805-32.967805-58.742634-71.230439-76.824976-113.88878-18.681756-44.156878-28.172488-91.111024-28.172488-139.463805 0-48.35278 9.490732-95.306927 28.172488-139.463805 18.082341-42.658341 43.857171-81.020878 76.824976-113.88878 32.867902-32.867902 71.230439-58.742634 113.88878-76.824976 44.156878-18.681756 91.111024-28.172488 139.463805-28.172488 48.35278 0 95.306927 9.490732 139.563707 28.172488 42.658341 18.082341 81.020878 43.857171 113.888781 76.824976 32.867902 32.967805 58.742634 71.230439 76.824975 113.88878 18.681756 44.156878 28.172488 91.111024 28.172488 139.463805 0 48.35278-9.490732 95.306927-28.172488 139.463805-18.082341 42.658341-43.857171 81.020878-76.824975 113.88878-32.867902 32.967805-71.230439 58.742634-113.888781 76.824976-44.25678 18.781659-91.210927 28.172488-139.563707 28.172488zM367.542341 681.734244c8.291902 23.077463 18.182244 44.356683 29.371318 63.038439 16.483902 27.473171 36.06478 49.651512 56.644682 64.137366 11.089171 7.79239 22.478049 13.486829 33.767025 16.683707l4.995122 1.398634V676.439415H365.644195l1.898146 5.294829zM532.780976 826.99239l4.995122-1.398634c11.288976-3.196878 22.577951-8.791415 33.767024-16.683707 20.579902-14.485854 40.16078-36.664195 56.644683-64.237269 11.288976-18.881561 21.179317-40.060878 29.371317-62.938536l1.898146-5.294829H532.780976v150.552975zM244.562439 682.533463c12.387902 19.381073 26.873756 37.363512 43.157854 53.64761 25.575024 25.674927 55.146146 46.554537 87.614439 62.139317l4.895219-5.894244C356.85278 761.256585 337.97122 723.193756 323.984878 679.236683l-0.899122-2.697366h-82.419512l3.896195 5.994146z m456.554146-3.396683c-13.886439 43.857171-32.867902 81.92-56.245073 113.189464l4.89522 5.894244c32.568195-15.58478 62.039415-36.46439 87.614439-62.139317 16.184195-16.184195 30.769951-34.166634 43.257756-53.547708l3.896195-6.094048h-82.519415l-0.899122 2.697365z m24.476098-143.859512c-1.298732 32.867902-5.294829 65.13639-11.788488 96.006244l-0.999024 4.795317h92.409756l0.999024-2.397658c13.08722-31.369366 20.979512-64.237268 23.377171-97.904391l0.299707-4.195902H725.692585l-0.099902 3.69639zM532.780976 635.978927h138.46478l0.699317-2.997073c7.292878-31.169561 11.788488-63.937561 13.08722-97.404878l0.199805-4.096H532.780976v104.497951zM340.069171 535.576976c1.398634 33.56722 5.794341 66.33522 13.087219 97.404878l0.699317 2.997073h138.464781V531.480976H339.869366l0.199805 4.096z m-144.55883 0.199804c2.497561 33.767024 10.389854 66.634927 23.377171 97.804488l0.999025 2.397659h92.409756l-0.999025-4.795317c-6.493659-30.670049-10.489756-62.938537-11.788488-96.006244l-0.199804-3.796293H195.210634l0.299707 4.395707z m518.293854-144.458926c6.493659 30.670049 10.489756 62.938537 11.788488 96.006244l0.199805 3.796292h104.198244l-0.299708-4.195902c-2.497561-33.667122-10.389854-66.634927-23.37717-97.804488l-0.999025-2.397659h-92.409756l0.899122 4.595513zM532.780976 491.020488h152.451122l-0.199805-4.096c-1.398634-33.467317-5.794341-66.135415-13.08722-97.404878l-0.699317-2.997073H532.780976v104.497951zM353.15639 389.619512c-7.292878 31.269463-11.788488 63.937561-13.087219 97.404878l-0.199805 4.096h152.451122V386.522537H353.855707l-0.699317 3.096975z m-134.168975-0.699317c-12.987317 31.369366-20.87961 64.237268-23.377171 97.804488l-0.299707 4.195902h104.198243l0.199805-3.796292c1.298732-32.867902 5.294829-65.236293 11.788488-96.006244l0.999025-4.795317H220.086341l-1.098926 2.597463z m425.884097-158.744975c23.377171 31.069659 42.258732 69.132488 56.245073 113.189463l0.899122 2.797268h82.419513l-3.896196-6.094049c-12.288-19.281171-26.873756-37.26361-43.157853-53.647609-25.575024-25.575024-55.046244-46.454634-87.614439-62.139317l-4.89522 5.894244zM532.780976 346.062049h126.676292l-1.898146-5.294829c-8.192-22.977561-18.082341-44.25678-29.371317-63.03844-16.483902-27.473171-36.06478-49.651512-56.644683-64.137365-10.989268-7.79239-22.378146-13.386927-33.767024-16.683708l-4.995122-1.398634v150.552976z m-45.45561-149.054439c-11.288976 3.29678-22.677854 8.891317-33.767025 16.683707-20.579902 14.485854-40.16078 36.664195-56.644682 64.237268-11.288976 18.981463-21.179317 40.16078-29.371318 62.938537l-1.898146 5.294829h126.676293V195.509073l-4.995122 1.498537z m-111.990634 27.273366c-32.468293 15.58478-62.039415 36.46439-87.614439 62.139317-16.384 16.384-30.869854 34.366439-43.157854 53.647609l-3.896195 6.094049h82.419512l0.899122-2.797268c13.686634-43.357659 33.16761-82.419512 56.245073-113.189463l-4.895219-5.894244z m0 0" fill="#FFFFFF" /></svg>