<svg width="45" height="44" viewBox="0 0 45 44" fill="none" xmlns="http://www.w3.org/2000/svg">
<path fill-rule="evenodd" clip-rule="evenodd" d="M22.7207 0.0180664C10.5704 0.0180664 0.720703 9.85212 0.720703 21.983C0.720703 34.1139 10.5704 43.948 22.7207 43.948C34.871 43.948 44.7207 34.1139 44.7207 21.983C44.7207 9.85212 34.871 0.0180664 22.7207 0.0180664ZM22.7207 40.9565C12.2273 40.9565 3.7207 32.4637 3.7207 21.9873C3.7207 11.5109 12.2273 3.01807 22.7207 3.01807C33.2141 3.01807 41.7207 11.5109 41.7207 21.9873C41.7207 27.0183 39.7189 31.8432 36.1557 35.4006C32.5925 38.958 27.7598 40.9565 22.7207 40.9565Z" fill="black"/>
<path fill-rule="evenodd" clip-rule="evenodd" d="M30.7207 20.9851H24.7207V14.9947C24.7207 14.1676 24.0491 13.4971 23.2207 13.4971C22.3923 13.4971 21.7207 14.1676 21.7207 14.9947V20.9851H15.7207C14.8923 20.9851 14.2207 21.6556 14.2207 22.4827C14.2207 23.3098 14.8923 23.9803 15.7207 23.9803H21.7207V29.9707C21.7207 30.7978 22.3923 31.4683 23.2207 31.4683C24.0491 31.4683 24.7207 30.7978 24.7207 29.9707V23.9803H30.7207C31.5491 23.9803 32.2207 23.3098 32.2207 22.4827C32.2207 21.6556 31.5491 20.9851 30.7207 20.9851Z" fill="black"/>
</svg>
